<svg class="css-ze2te4 css-qd6ojx" viewBox="0 0 97.99999999999997 143.94196379895277"><g transform="translate(-21.591292922557994, 0) scale(1.4394195281705329)" class="css-4muuy3" fill="#364f6b"><g xmlns="http://www.w3.org/2000/svg"><path d="M83.083,34.042C83.083,15.242,67.842,0,49.042,0S15,15.242,15,34.042c0,10.421,4.695,19.735,12.071,25.979h-0.027   c5.515,4.67,8.432,11.714,7.838,18.912v4.679h0.096c-0.057,0.527-0.144,1.05-0.144,1.58c0,5.386,4.558,9.327,8.883,11.27   c0.874,2.077,2.929,3.538,5.325,3.538s4.45-1.461,5.324-3.538c4.325-1.942,8.883-5.884,8.883-11.27c0-0.53-0.086-1.053-0.144-1.58   h0.144v-4.679h-0.048c-0.593-7.198,2.324-14.242,7.838-18.912h-0.027C78.389,53.777,83.083,44.463,83.083,34.042z M66.481,54.67   c-0.148,0.125-0.29,0.258-0.427,0.393c-6.201,5.476-9.794,13.329-9.936,21.539H41.964c-0.142-8.208-3.733-16.063-9.935-21.537   c-0.135-0.137-0.279-0.267-0.428-0.395c-6.094-5.158-9.59-12.679-9.59-20.628c0-14.904,12.126-27.03,27.03-27.03   c14.903,0,27.03,12.126,27.03,27.03C76.072,41.991,72.575,49.512,66.481,54.67z"></path><path d="M58.831,29.915l-0.306,0.135l-9.331,4.147l-9.33-4.147l-0.304-0.135c-0.493-0.222-1.057-0.297-1.627-0.188   c-1.483,0.286-2.454,1.719-2.171,3.202l3.111,16.219c0.084,0.437,0.456,0.774,0.917,0.797c0.541,0.025,1-0.393,1.027-0.934   l0.557-11.894l6.633,2.946c0.726,0.32,1.591,0.348,2.374,0l6.632-2.946l0.558,11.894c0.022,0.44,0.342,0.828,0.796,0.915   c0.532,0.103,1.046-0.246,1.148-0.778l3.11-16.219c0.104-0.531,0.048-1.095-0.187-1.627C61.825,29.922,60.209,29.301,58.831,29.915   z"></path></g></g></svg>
